<?xml version="1.0" encoding="UTF-8"?>
<!DOCTYPE svg PUBLIC "-//W3C//DTD SVG 1.1//EN" "http://www.w3.org/Graphics/SVG/1.1/DTD/svg11.dtd">
<!-- Creator: CorelDRAW -->
<svg xmlns="http://www.w3.org/2000/svg" xml:space="preserve" width="1.5989mm" height="1.5989mm" version="1.1" style="shape-rendering:geometricPrecision; text-rendering:geometricPrecision; image-rendering:optimizeQuality; fill-rule:evenodd; clip-rule:evenodd"
viewBox="0 0 0.25 0.25"
 xmlns:xlink="http://www.w3.org/1999/xlink"
 xmlns:xodm="http://www.corel.com/coreldraw/odm/2003">
 <defs>
  <style type="text/css">
   <![CDATA[
    .str0 {stroke:white;stroke-width:0.01;stroke-miterlimit:22.9256}
    .fil0 {fill:none}
    .fil1 {fill:white}
   ]]>
  </style>
 </defs>
 <g id="Camada_x0020_1">
  <metadata id="CorelCorpID_0Corel-Layer"/>
  <g id="_1857657712">
   <circle class="fil0 str0" cx="0.13" cy="0.13" r="0.12"/>
   <g>
    <path class="fil1" d="M0.11 0.08l0.05 0 0 0.09 -0.05 0c-0.02,0 -0.04,-0.02 -0.04,-0.04l0 -0c0,-0.02 0.02,-0.04 0.04,-0.04z"/>
    <path class="fil1" d="M0.2 0.09l-0.04 0 0 0.02 0.04 0c0.01,0 0.01,-0.01 0.01,-0.01l0 -0c0,-0.01 -0.01,-0.01 -0.01,-0.01z"/>
    <path class="fil1" d="M0.2 0.13l-0.04 0 0 0.02 0.04 0c0.01,0 0.01,-0.01 0.01,-0.01l0 -0c0,-0.01 -0.01,-0.01 -0.01,-0.01z"/>
    <path class="fil1" d="M0.08 0.11l-0.04 0 0 0.02 0.04 0c0.01,0 0.01,-0.01 0.01,-0.01l0 -0c0,-0.01 -0.01,-0.01 -0.01,-0.01z"/>
   </g>
  </g>
 </g>
</svg>
