<?xml version="1.0" encoding="UTF-8"?>
<!DOCTYPE svg PUBLIC "-//W3C//DTD SVG 1.1//EN" "http://www.w3.org/Graphics/SVG/1.1/DTD/svg11.dtd">
<!-- Creator: CorelDRAW -->
<svg xmlns="http://www.w3.org/2000/svg" xml:space="preserve" width="8.5835mm" height="8.5835mm" version="1.1" style="shape-rendering:geometricPrecision; text-rendering:geometricPrecision; image-rendering:optimizeQuality; fill-rule:evenodd; clip-rule:evenodd"
viewBox="0 0 111.86 111.86"
 xmlns:xlink="http://www.w3.org/1999/xlink"
 xmlns:xodm="http://www.corel.com/coreldraw/odm/2003">
 <defs>
  <style type="text/css">
   <![CDATA[
    .fil0 {fill:none}
    .fil1 {fill:black}
   ]]>
  </style>
 </defs>
 <g id="Camada_x0020_1">
  <metadata id="CorelCorpID_0Corel-Layer"/>
  <g id="_1384286320">
   <rect class="fil0" x="-0" y="-0" width="111.86" height="111.86"/>
   <path class="fil1" d="M38.08 47.02l-8.11 27.8 -3.58 0 -8.11 -27.8 -7.9 27.8 -4.65 0 10.73 -37.75 3.59 0 8.13 27.92 8.13 -27.92 3.59 0 10.73 37.75 -4.65 0 -7.9 -27.8zm25.96 -10c2.38,0 4.68,0.5 6.83,1.52 2.1,0.99 3.93,2.36 5.48,4.09 1.58,1.76 2.77,3.79 3.63,5.98 0.91,2.33 1.34,4.78 1.34,7.29 0,2.52 -0.42,4.99 -1.34,7.33 -0.86,2.2 -2.05,4.22 -3.63,5.98 -1.55,1.73 -3.38,3.1 -5.48,4.09 -2.15,1.02 -4.45,1.52 -6.83,1.52 -2.38,0 -4.67,-0.49 -6.81,-1.52 -2.08,-1 -3.91,-2.37 -5.45,-4.09 -1.58,-1.76 -2.77,-3.79 -3.63,-5.98 -0.92,-2.35 -1.34,-4.82 -1.34,-7.33 0,-2.5 0.43,-4.95 1.34,-7.29 0.86,-2.2 2.05,-4.22 3.63,-5.98 1.54,-1.72 3.36,-3.09 5.45,-4.09 2.15,-1.03 4.43,-1.52 6.81,-1.52zm29.28 19.21l12.48 18.59 -5.29 0 -9.91 -14.69 -9.96 14.69 -5.3 0 12.54 -18.59 -12.86 -19.16 5.29 0 10.3 15.18 10.25 -15.18 5.28 0 -12.81 19.16zm-29.28 14.14c1.73,0 3.37,-0.36 4.93,-1.1 1.57,-0.74 2.93,-1.76 4.08,-3.05 1.22,-1.36 2.13,-2.94 2.78,-4.64 0.71,-1.82 1.03,-3.73 1.03,-5.69 0,-1.95 -0.32,-3.85 -1.03,-5.66 -0.66,-1.7 -1.57,-3.26 -2.79,-4.62 -1.15,-1.29 -2.51,-2.31 -4.08,-3.05 -1.56,-0.74 -3.2,-1.1 -4.93,-1.1 -1.71,0 -3.33,0.35 -4.87,1.09 -1.56,0.75 -2.92,1.78 -4.07,3.06 -1.22,1.35 -2.14,2.91 -2.8,4.61 -0.71,1.81 -1.03,3.72 -1.03,5.66 0,1.95 0.33,3.87 1.03,5.69 0.66,1.7 1.58,3.27 2.8,4.63 1.16,1.28 2.52,2.31 4.07,3.06 1.54,0.74 3.16,1.09 4.87,1.09z"/>
  </g>
 </g>
</svg>
